Coordinates
version=1
nRows=14
nColumns=24
inDegrees=yes

Units are S.I. units (second, meters, Newtons, ...)
Angles are in degrees.

endheader
time	pelvis_tilt	pelvis_list	pelvis_rotation	pelvis_tx	pelvis_ty	pelvis_tz	hip_flexion_r	hip_adduction_r	hip_rotation_r	knee_angle_r	ankle_angle_r	subtalar_angle_r	mtp_angle_r	hip_flexion_l	hip_adduction_l	hip_rotation_l	knee_angle_l	ankle_angle_l	subtalar_angle_l	mtp_angle_l	lumbar_extension	lumbar_bending	lumbar_rotation
      7.88000000	     48.99609673	      1.50277003	     -3.45315196	      0.75864062	      0.96435637	     -0.27594242	     17.75454480	    -14.02147835	      8.56078133	    -62.61900488	      7.08668841	     15.67677790	    -32.43199400	     13.00598563	     -8.07049327	     -0.23369474	    -59.22701380	      4.07881649	     12.50362946	    -57.18342154	      0.00000000	      0.00000000	      0.00000000
      7.89000000	     48.98552712	      1.50203229	     -3.44935140	      0.75865263	      0.96435602	     -0.27595735	     17.76252918	    -14.02168449	      8.55734383	    -62.61672850	      7.09230544	     15.66878577	    -32.47617819	     13.02261364	     -8.09401230	     -0.22102998	    -59.35743491	      4.09470513	     12.45459253	    -57.20861710	      0.00000000	      0.00000000	      0.00000000
      7.90000000	     48.97703736	      1.49988005	     -3.44395794	      0.75866330	      0.96435293	     -0.27597242	     17.76844432	    -14.01984839	      8.55626686	    -62.61627438	      7.09946183	     15.66534153	    -32.51626545	     13.03552153	     -8.11453314	     -0.20825786	    -59.47211077	      4.11760797	     12.43233204	    -57.24206837	      0.00000000	      0.00000000	      0.00000000
      7.91000000	     48.97035143	      1.49637913	     -3.43813485	      0.75866762	      0.96434569	     -0.27597275	     17.77428473	    -14.01719524	      8.55866832	    -62.61734083	      7.10657951	     15.66684641	    -32.55328089	     13.04371125	     -8.13217764	     -0.19207306	    -59.56814999	      4.14543910	     12.44159148	    -57.28442377	      0.00000000	      0.00000000	      0.00000000
      7.92000000	     48.96519116	      1.49242037	     -3.43398612	      0.75866634	      0.96433775	     -0.27595815	     17.78147069	    -14.01519894	      8.56508536	    -62.61961167	      7.11233699	     15.67300777	    -32.58814763	     13.04678015	     -8.14770612	     -0.17050211	    -59.64244202	      4.17552489	     12.48201734	    -57.33391046	      0.00000000	      0.00000000	      0.00000000
      7.93000000	     48.96121718	      1.48950197	     -3.43348596	      0.75866345	      0.96433001	     -0.27595493	     17.79050740	    -14.01461084	      8.57495230	    -62.62278704	      7.11602170	     15.68279664	    -32.62144414	     13.04496565	     -8.16171129	     -0.14441686	    -59.69278664	      4.20505049	     12.54735052	    -57.38645376	      0.00000000	      0.00000000	      0.00000000
      7.94000000	     48.95803196	      1.48827223	     -3.43686220	      0.75866253	      0.96431957	     -0.27597948	     17.80092318	    -14.01519637	      8.58680943	    -62.62655590	      7.11764561	     15.69454833	    -32.65326605	     13.03913311	     -8.17349407	     -0.11857451	    -59.71912239	      4.23150767	     12.62601354	    -57.43628680	      0.00000000	      0.00000000	      0.00000000
      7.95000000	     48.95527101	      1.48773585	     -3.44208420	      0.75866432	      0.96430408	     -0.27600747	     17.81137721	    -14.01609505	      8.59890869	    -62.63056568	      7.11778012	     15.70625633	    -32.68320184	     13.03077943	     -8.18077341	     -0.10090386	    -59.72411397	      4.25296380	     12.70332533	    -57.47702622	      0.00000000	      0.00000000	      0.00000000
      7.96000000	     48.95282534	      1.48673773	     -3.44657230	      0.75866563	      0.96428535	     -0.27601166	     17.82004180	    -14.01645288	      8.60969901	    -62.63440759	      7.11722335	     15.71601058	    -32.71040044	     13.02190887	     -8.18117672	     -0.09943697	    -59.71245510	      4.26810786	     12.76494019	    -57.50302332	      0.00000000	      0.00000000	      0.00000000
      7.97000000	     48.95109095	      1.48564332	     -3.44928303	      0.75866275	      0.96427153	     -0.27599953	     17.82543144	    -14.01628896	      8.61837288	    -62.63755442	      7.11668126	     15.72245700	    -32.73369570	     13.01452452	     -8.17424406	     -0.11858665	    -59.68914759	      4.27620663	     12.80045164	    -57.51064626	      0.00000000	      0.00000000	      0.00000000
      7.98000000	     48.95075220	      1.48598151	     -3.45104753	      0.75865662	      0.96426972	     -0.27599146	     17.82711550	    -14.01666473	      8.62513633	    -62.63935956	      7.11658716	     15.72514082	    -32.75175295	     13.00983967	     -8.16145388	     -0.15764438	    -59.65783086	      4.27714042	     12.80589785	    -57.49911406	      0.00000000	      0.00000000	      0.00000000
      7.99000000	     48.95217824	      1.48884114	     -3.45350031	      0.75865195	      0.96427697	     -0.27599295	     17.82566071	    -14.01876270	      8.63081146	    -62.63930976	      7.11706665	     15.72461559	    -32.76320942	     13.00785854	     -8.14438878	     -0.21212683	    -59.61990870	      4.27159625	     12.78434849	    -57.47062411	      0.00000000	      0.00000000	      0.00000000
      8.00000000	     48.95518215	      1.49380724	     -3.45795026	      0.75865130	      0.96428947	     -0.27599771	     17.82202202	    -14.02304358	      8.63626536	    -62.63737632	      7.11798554	     15.72228665	    -32.76679407	     13.00773009	     -8.12349938	     -0.27613353	    -59.57450258	      4.26133314	     12.74454492	    -57.42973055	      0.00000000	      0.00000000	      0.00000000
      8.01000000	     48.95929434	      1.49916628	     -3.46473658	      0.75865306	      0.96431111	     -0.27599954	     17.81702253	    -14.02911515	      8.64209079	    -62.63411084	      7.11903196	     15.72007806	    -32.76144206	     13.00834775	     -8.09855576	     -0.34416151	    -59.51907731	      4.24929218	     12.69823635	    -57.38215570	      0.00000000	      0.00000000	      0.00000000
